# Blender 3.5.1
# www.blender.org
mtllib limon.mtl
o Cube.006
v -0.205052 -0.220740 -0.068957
v -0.360508 -0.032774 0.179792
v -0.299178 -0.091056 -0.158167
v -0.360508 0.032774 0.179792
v -0.205052 0.220740 -0.068957
v -0.299178 0.091056 -0.158167
v 0.038124 -0.220740 -0.325535
v -0.056002 -0.091056 -0.414744
v 0.267322 -0.036761 -0.488435
v 0.038124 0.220740 -0.325535
v 0.267322 0.036761 -0.488435
v -0.056002 0.091056 -0.414744
v -0.072873 -0.220740 0.056317
v 0.021252 -0.091056 0.145526
v -0.312933 -0.032774 0.224882
v -0.072873 0.220740 0.056317
v -0.312933 0.032774 0.224882
v 0.021252 0.091056 0.145526
v 0.170302 -0.220740 -0.200261
v 0.320685 -0.036761 -0.437859
v 0.264428 -0.091056 -0.111051
v 0.170302 0.220740 -0.200261
v 0.264428 0.091056 -0.111051
v 0.320685 0.036761 -0.437859
v -0.112983 -0.091056 0.192484
v -0.112983 0.091056 0.192484
v 0.077646 -0.091056 -0.461496
v 0.077646 0.091056 -0.461496
v -0.338699 -0.091056 -0.022205
v -0.338699 0.091056 -0.022205
v 0.303932 -0.091056 -0.246950
v 0.303932 0.091056 -0.246950
v 0.124709 -0.155898 -0.416891
v 0.124709 0.155898 -0.416891
v 0.010822 0.091056 -0.438120
v 0.256887 -0.155898 -0.291617
v 0.284180 -0.091056 -0.179001
v 0.256887 0.155898 -0.291617
v 0.010822 -0.091056 -0.438120
v 0.284180 0.091056 -0.179001
v -0.291636 -0.155898 0.022400
v -0.318939 -0.091056 -0.090186
v -0.291636 0.155898 0.022400
v -0.159459 -0.155898 0.147674
v -0.159459 0.155898 0.147674
v -0.045865 0.091056 0.169006
v -0.045865 -0.091056 0.169006
v -0.318939 0.091056 -0.090186
v -0.089474 -0.240815 -0.202943
v -0.192161 -0.099337 -0.300265
v -0.089474 0.240815 -0.202943
v -0.192161 0.099337 -0.300265
v 0.054725 -0.240815 -0.066275
v 0.157411 -0.099337 0.031047
v 0.054725 0.240815 -0.066275
v 0.157411 0.099337 0.031047
v 0.235315 0.057959 -0.485480
v 0.235315 -0.057959 -0.485480
v 0.319450 -0.057959 -0.405742
v 0.319450 0.057959 -0.405742
v 0.292029 0.021924 -0.492936
v 0.292029 -0.021924 -0.492936
v 0.323854 -0.021924 -0.462772
v 0.323854 0.021924 -0.462772
v -0.359943 -0.065874 0.131079
v -0.359943 0.065874 0.131079
v -0.264321 0.065874 0.221707
v -0.264321 -0.065874 0.221707
v -0.260654 -0.165891 -0.106046
v -0.364092 0.083494 0.072722
v -0.260654 0.165891 -0.106046
v -0.001891 -0.165891 -0.379069
v 0.174131 -0.079283 -0.489043
v -0.001891 0.165891 -0.379069
v 0.174131 0.079283 -0.489043
v -0.364092 -0.083494 0.072722
v 0.079730 0.131392 -0.440113
v 0.079730 -0.131392 -0.440113
v -0.317235 0.131392 -0.021271
v -0.317235 -0.131392 -0.021271
v -0.142223 0.180978 -0.252935
v -0.142223 -0.180978 -0.252935
v 0.108627 -0.231583 -0.267554
v 0.290302 -0.060806 -0.459243
v 0.108627 0.231583 -0.267554
v 0.290302 0.060806 -0.459243
v -0.146494 -0.231583 0.001626
v -0.328169 -0.069109 0.193315
v -0.146494 0.231583 0.001626
v -0.328169 0.069109 0.193315
v 0.199464 0.163556 -0.363398
v 0.199464 -0.163556 -0.363398
v -0.237332 0.163556 0.097470
v -0.237332 -0.163556 0.097470
v -0.018934 -0.252644 -0.132964
v -0.018934 0.252644 -0.132964
v 0.307739 -0.038567 -0.477640
v 0.307739 0.038567 -0.477640
v 0.322362 -0.023001 -0.493069
v 0.322362 0.023001 -0.493069
v -0.353966 -0.034384 0.220533
v -0.353966 0.034384 0.220533
v -0.035943 -0.170273 0.113765
v -0.213799 -0.085700 0.229729
v -0.035943 0.170273 0.113765
v 0.229655 -0.170273 -0.166471
v 0.229655 0.170273 -0.166471
v 0.332678 0.081378 -0.352899
v -0.213799 0.085700 0.229729
v 0.332678 -0.081378 -0.352899
v 0.287726 0.134862 -0.253468
v 0.287726 -0.134862 -0.253468
v -0.119880 0.134862 0.176477
v -0.119880 -0.134862 0.176477
v 0.108096 0.185758 -0.015700
v 0.108096 -0.185758 -0.015700
v -0.383885 0.000000 0.150045
v -0.319120 0.000000 -0.158239
v 0.250554 0.000000 -0.507097
v -0.059938 0.000000 -0.431704
v 0.281582 0.000000 -0.108023
v 0.340225 0.000000 -0.422109
v -0.281968 0.000000 0.246638
v 0.022401 0.000000 0.165443
v -0.120670 0.000000 0.215491
v 0.082506 0.000000 -0.481534
v -0.361243 0.000000 -0.013328
v 0.323686 0.000000 -0.252867
v 0.302634 0.000000 -0.180445
v 0.011284 0.000000 -0.456619
v -0.049135 0.000000 0.190467
v -0.340182 0.000000 -0.085784
v -0.205059 0.000000 -0.309690
v 0.167522 0.000000 0.043429
v 0.284667 0.000000 -0.510246
v 0.341542 0.000000 -0.456342
v 0.311000 0.000000 -0.515043
v 0.344920 0.000000 -0.482894
v -0.384488 0.000000 0.201964
v -0.333781 0.000000 0.250022
v -0.388306 0.000000 0.087846
v 0.185342 0.000000 -0.510894
v 0.343330 0.000000 -0.515185
v -0.377514 0.000000 0.245386
v -0.228122 0.000000 0.255187
v 0.354325 0.000000 -0.365789
vn -0.4815 0.7142 0.5080
vn -0.5012 0.6850 0.5287
vn -0.8111 0.5544 0.1863
vn -0.9882 -0.0000 0.1533
vn 0.7248 -0.0000 0.6890
vn 0.6653 0.4013 0.6295
vn 0.4765 0.3796 0.7930
vn 0.4843 -0.0000 0.8749
vn -0.0012 1.0000 0.0012
vn -0.2845 0.9196 -0.2708
vn -0.4450 0.8930 -0.0664
vn -0.2063 0.9540 0.2177
vn -0.7269 -0.0000 -0.6868
vn -0.6592 0.4170 -0.6258
vn -0.4677 0.3916 -0.7924
vn -0.4883 -0.0000 -0.8727
vn 0.0502 -0.0000 -0.9987
vn 0.1345 0.5608 -0.8169
vn 0.0494 0.6328 -0.7728
vn -0.0004 0.6710 -0.7414
vn -0.7599 -0.6390 -0.1189
vn -0.8578 -0.5138 -0.0090
vn -0.9090 -0.3401 -0.2409
vn -0.8853 -0.3785 -0.2701
vn -0.7599 0.6390 -0.1189
vn -0.6620 0.6940 -0.2833
vn -0.8131 0.3971 -0.4257
vn -0.8853 0.3785 -0.2701
vn -0.1404 -0.6362 -0.7586
vn -0.3155 -0.3697 -0.8739
vn -0.2667 -0.3334 -0.9043
vn -0.0114 -0.4991 -0.8665
vn -0.1404 0.6362 -0.7586
vn -0.0114 0.4991 -0.8665
vn -0.2667 0.3334 -0.9043
vn -0.3155 0.3697 -0.8739
vn 0.1366 -0.6425 0.7540
vn 0.3294 -0.3499 0.8769
vn 0.3179 -0.2894 0.9029
vn -0.0044 -0.5526 0.8334
vn 0.1366 0.6425 0.7540
vn -0.0044 0.5526 0.8334
vn 0.3179 0.2894 0.9029
vn 0.3294 0.3499 0.8769
vn 0.7660 -0.6383 0.0770
vn 0.8380 -0.5380 -0.0912
vn 0.9271 -0.2814 0.2478
vn 0.8974 -0.3407 0.2805
vn 0.7660 0.6383 0.0770
vn 0.8974 0.3407 0.2805
vn 0.9271 0.2814 0.2478
vn 0.8380 0.5380 -0.0912
vn -0.5100 -0.7115 -0.4834
vn -0.6620 -0.6940 -0.2833
vn -0.8131 -0.3971 -0.4257
vn -0.6592 -0.4170 -0.6258
vn -0.9603 -0.0000 -0.2791
vn -0.8996 -0.0000 -0.4367
vn -0.5100 0.7115 -0.4834
vn -0.3183 0.6940 -0.6458
vn -0.3302 -0.0000 -0.9439
vn -0.4677 -0.3916 -0.7924
vn 0.3782 -0.8353 -0.3991
vn 0.1283 -0.7989 -0.5877
vn 0.1891 -0.5764 -0.7950
vn 0.4753 -0.7230 -0.5015
vn 0.3782 0.8353 -0.3991
vn 0.5348 0.8218 -0.1966
vn 0.7549 0.5888 -0.2889
vn 0.4753 0.7230 -0.5015
vn 0.9985 -0.0000 -0.0552
vn 0.7549 -0.5888 -0.2889
vn 0.9790 -0.0000 -0.2039
vn 0.5066 -0.7161 0.4802
vn 0.6607 -0.7009 0.2689
vn 0.8206 -0.3741 0.4321
vn 0.6653 -0.4013 0.6295
vn 0.5066 0.7161 0.4802
vn 0.3039 0.7009 0.6453
vn 0.3302 -0.0000 0.9439
vn 0.4765 -0.3796 0.7930
vn -0.3667 -0.8461 0.3869
vn -0.1432 -0.8289 0.5408
vn -0.2192 -0.6028 0.7672
vn -0.4815 -0.7142 0.5081
vn -0.3667 0.8461 0.3869
vn -0.5756 0.8066 0.1344
vn -0.7831 0.5891 0.1995
vn -0.4815 0.7142 0.5081
vn -0.0012 -1.0000 0.0012
vn 0.2697 -0.9287 0.2545
vn 0.0724 -0.9037 0.4220
vn -0.2063 -0.9540 0.2177
vn 0.0313 -0.0000 0.9995
vn 0.3365 -0.0000 0.9417
vn -0.0582 -0.0000 -0.9983
vn -0.2943 -0.0000 -0.9557
vn -0.9990 -0.0000 -0.0444
vn -0.8578 0.5138 -0.0090
vn -0.9090 0.3401 -0.2409
vn -0.9647 -0.0000 -0.2633
vn 0.9603 -0.0000 0.2791
vn 0.9642 -0.0000 0.2653
vn 0.8976 -0.0000 0.4408
vn 0.2029 0.9555 -0.2140
vn 0.4230 0.9051 0.0429
vn 0.2029 -0.9555 -0.2140
vn -0.0832 -0.8946 -0.4390
vn 0.6607 0.7009 0.2689
vn 0.8206 0.3741 0.4321
vn -0.3183 -0.6940 -0.6458
vn 0.3039 -0.7009 0.6453
vn 0.4230 -0.9051 0.0429
vn -0.0832 0.8946 -0.4390
vn 0.1345 -0.5608 -0.8169
vn 0.0846 -0.0000 -0.9964
vn 0.4946 -0.6951 -0.5218
vn 0.8085 -0.5609 -0.1781
vn 0.4946 0.6951 -0.5218
vn 0.1891 0.5764 -0.7950
vn 0.9946 -0.0000 -0.1037
vn 0.8085 0.5609 -0.1781
vn 0.4080 0.8052 -0.4304
vn 0.4345 0.7753 -0.4585
vn 0.7689 0.6329 -0.0908
vn 0.7403 0.6711 -0.0393
vn 0.7689 -0.6329 -0.0908
vn 0.7403 -0.6711 -0.0393
vn 0.0494 -0.6328 -0.7728
vn 0.4345 -0.7753 -0.4585
vn -0.9889 -0.0000 0.1483
vn -0.1001 -0.0000 0.9950
vn -0.1425 -0.5545 0.8199
vn -0.1651 -0.0000 0.9863
vn -0.5012 -0.6850 0.5287
vn -0.8111 -0.5544 0.1863
vn -0.7831 -0.5891 0.1995
vn -0.1425 0.5545 0.8199
vn -0.2192 0.6028 0.7672
vn -0.2845 -0.9196 -0.2708
vn -0.4450 -0.8930 -0.0664
vn -0.5756 -0.8066 0.1344
vn 0.1283 0.7989 -0.5877
vn 0.2697 0.9287 0.2545
vn 0.0724 0.9037 0.4220
vn -0.1432 0.8289 0.5408
vn 0.5348 -0.8218 -0.1966
vn -0.4815 -0.7142 0.5080
vn -0.0004 -0.6710 -0.7414
vn 0.4080 -0.8052 -0.4304
vt 0.180014 0.269366
vt 0.059137 0.398576
vt 0.117172 0.215783
vt 0.059137 0.601424
vt 0.180014 0.730634
vt 0.117172 0.784217
vt 0.289535 0.169779
vt 0.242516 0.102277
vt 0.422840 0.064122
vt 0.289535 0.830221
vt 0.422840 0.935878
vt 0.242516 0.897723
vt 0.231772 0.326277
vt 0.279545 0.393844
vt 0.092219 0.434678
vt 0.231772 0.673723
vt 0.092219 0.565322
vt 0.279544 0.606157
vt 0.341211 0.226409
vt 0.458728 0.103735
vt 0.404037 0.279789
vt 0.341211 0.773591
vt 0.404037 0.720211
vt 0.458728 0.896265
vt 0.211096 0.413517
vt 0.211096 0.586483
vt 0.310787 0.084120
vt 0.310787 0.915880
vt 0.091923 0.282187
vt 0.091923 0.717813
vt 0.429119 0.213878
vt 0.429119 0.786122
vt 0.331561 0.123793
vt 0.331561 0.876207
vt 0.275605 0.908336
vt 0.390770 0.188648
vt 0.417953 0.247924
vt 0.390770 0.811352
vt 0.275605 0.091664
vt 0.417953 0.752076
vt 0.130019 0.307183
vt 0.103209 0.247758
vt 0.130019 0.692818
vt 0.189323 0.372368
vt 0.189323 0.627632
vt 0.246327 0.594910
vt 0.246327 0.405090
vt 0.103209 0.752242
vt 0.233321 0.217878
vt 0.174430 0.152948
vt 0.233321 0.782122
vt 0.174430 0.847052
vt 0.288068 0.277978
vt 0.347300 0.342731
vt 0.288068 0.722022
vt 0.347300 0.657269
vt 0.400306 0.927777
vt 0.400306 0.072223
vt 0.448370 0.125362
vt 0.448370 0.874638
vt 0.441784 0.942519
vt 0.441784 0.057481
vt 0.467219 0.085506
vt 0.467219 0.914495
vt 0.073528 0.366059
vt 0.073528 0.633942
vt 0.125871 0.576895
vt 0.125871 0.423105
vt 0.148364 0.249316
vt 0.079368 0.666995
vt 0.148364 0.750685
vt 0.272675 0.136503
vt 0.363853 0.075658
vt 0.272675 0.863497
vt 0.363853 0.924342
vt 0.079368 0.333005
vt 0.311643 0.893954
vt 0.311643 0.106046
vt 0.113993 0.714576
vt 0.113993 0.285424
vt 0.206795 0.811333
vt 0.206795 0.188667
vt 0.316879 0.196708
vt 0.431850 0.092008
vt 0.316879 0.803292
vt 0.431850 0.907992
vt 0.203007 0.300435
vt 0.090776 0.402779
vt 0.203007 0.699565
vt 0.090776 0.597221
vt 0.365563 0.847735
vt 0.365563 0.152265
vt 0.154120 0.655110
vt 0.154120 0.344890
vt 0.259985 0.248565
vt 0.259985 0.751435
vt 0.449130 0.076355
vt 0.449130 0.923645
vt 0.464047 0.062817
vt 0.464047 0.937183
vt 0.066590 0.424947
vt 0.066590 0.575053
vt 0.246780 0.359776
vt 0.155260 0.421242
vt 0.246780 0.640224
vt 0.373087 0.244312
vt 0.373087 0.755688
vt 0.442846 0.842310
vt 0.155260 0.578758
vt 0.442846 0.157690
vt 0.407472 0.792447
vt 0.407472 0.207553
vt 0.206687 0.608963
vt 0.206687 0.391037
vt 0.313963 0.693686
vt 0.313963 0.306314
vt 0.030960 0.619534
vt 0.030960 0.380466
vt 0.074122 0.806358
vt 0.074122 0.193642
vt 0.415476 0.034876
vt 0.415476 0.965124
vt 0.223047 0.941580
vt 0.223047 0.058420
vt 0.445779 0.303343
vt 0.445779 0.696657
vt 0.487246 0.114003
vt 0.487246 0.885997
vt 0.107844 0.464403
vt 0.107844 0.535597
vt 0.297665 0.561340
vt 0.297665 0.438660
vt 0.210984 0.465532
vt 0.210984 0.534468
vt 0.309918 0.032472
vt 0.309918 0.967528
vt 0.039622 0.722373
vt 0.039622 0.277627
vt 0.479986 0.219810
vt 0.479986 0.780190
vt 0.465993 0.263344
vt 0.465992 0.736656
vt 0.264986 0.042168
vt 0.264986 0.957832
vt 0.255792 0.455253
vt 0.255792 0.544747
vt 0.053881 0.766145
vt 0.053881 0.233855
vt 0.139924 0.883588
vt 0.139924 0.116412
vt 0.380392 0.619589
vt 0.380392 0.380411
vt 0.439427 0.963662
vt 0.439427 0.036338
vt 0.488103 0.910095
vt 0.488103 0.089905
vt 0.460630 0.963720
vt 0.460630 0.036280
vt 0.490163 0.931241
vt 0.490163 0.068759
vt 0.032855 0.583178
vt 0.032855 0.416823
vt 0.071718 0.459294
vt 0.071718 0.540706
vt 0.029423 0.659861
vt 0.029423 0.340139
vt 0.374293 0.029423
vt 0.374293 0.970577
vt 0.487454 0.958452
vt 0.487454 0.041548
vt 0.040761 0.551407
vt 0.040761 0.448593
vt 0.143038 0.470577
vt 0.143038 0.529423
vt 0.490163 0.151161
vt 0.490163 0.848839
s 1
usemtl limon.001
f 144/171/1 102/102/2 4/4/3 139/161/4
f 134/151/5 56/56/6 18/18/7 124/131/8
f 96/96/9 51/51/10 5/5/11 89/89/12
f 133/149/13 52/52/14 12/12/15 120/123/16
f 135/153/17 11/11/18 61/61/19 137/157/20
f 80/80/21 76/76/22 29/29/23 42/42/24
f 79/79/25 71/71/26 6/6/27 48/48/28
f 78/78/29 39/39/30 27/27/31 73/73/32
f 77/77/33 75/75/34 28/28/35 35/35/36
f 114/114/37 47/47/38 25/25/39 104/104/40
f 113/113/41 109/109/42 26/26/43 46/46/44
f 112/112/45 110/110/46 31/31/47 37/37/48
f 111/111/49 40/40/50 32/32/51 108/108/52
f 82/82/53 69/69/54 3/3/55 50/50/56
f 132/147/57 48/48/28 6/6/27 118/119/58
f 81/81/59 74/74/60 12/12/15 52/52/14
f 130/143/61 39/39/30 8/8/62 120/124/16
f 92/92/63 33/33/64 58/58/65 84/84/66
f 91/91/67 38/38/68 60/60/69 86/86/70
f 146/175/71 110/110/46 59/59/72 122/127/73
f 116/116/74 106/106/75 21/21/76 54/54/77
f 115/115/78 105/105/79 18/18/7 56/56/6
f 131/145/80 47/47/38 14/14/81 124/132/8
f 94/94/82 44/44/83 68/68/84 88/88/85
f 93/93/86 43/43/87 66/66/88 90/90/89
f 95/95/90 53/53/91 13/13/92 87/87/93
f 145/173/94 104/104/40 25/25/39 125/133/95
f 142/167/96 73/73/32 27/27/31 126/135/97
f 141/165/98 70/70/99 30/30/100 127/137/101
f 129/141/102 37/37/48 31/31/47 128/139/103
f 121/125/104 21/21/76 37/37/48 129/141/102
f 85/85/105 22/22/106 38/38/68 91/91/67
f 83/83/107 7/7/108 33/33/64 92/92/63
f 126/135/97 27/27/31 39/39/30 130/143/61
f 107/107/109 23/23/110 40/40/50 111/111/49
f 106/106/75 112/112/45 37/37/48 21/21/76
f 74/74/60 77/77/33 35/35/36 12/12/15
f 72/72/111 8/8/62 39/39/30 78/78/29
f 89/89/12 5/5/11 43/43/87 93/93/86
f 87/87/93 13/13/92 44/44/83 94/94/82
f 125/133/95 25/25/39 47/47/38 131/145/80
f 127/137/101 30/30/100 48/48/28 132/147/57
f 105/105/79 113/113/41 46/46/44 18/18/7
f 103/103/112 14/14/81 47/47/38 114/114/37
f 70/70/99 79/79/25 48/48/28 30/30/100
f 69/69/54 80/80/21 42/42/24 3/3/55
f 83/83/107 19/19/113 53/53/91 95/95/90
f 107/107/109 115/115/78 56/56/6 23/23/110
f 103/103/112 116/116/74 54/54/77 14/14/81
f 71/71/26 81/81/59 52/52/14 6/6/27
f 72/72/111 82/82/53 50/50/56 8/8/62
f 118/119/58 6/6/27 52/52/14 133/149/13
f 85/85/105 10/10/114 51/51/10 96/96/9
f 121/126/104 23/23/110 56/56/6 134/151/5
f 135/154/17 9/9/115 58/58/65 119/121/116
f 97/97/117 20/20/118 59/59/72 84/84/66
f 98/98/119 11/11/18 57/57/120 86/86/70
f 136/155/121 24/24/122 60/60/69 122/128/73
f 143/169/123 100/100/124 64/64/125 138/159/126
f 136/156/121 20/20/118 63/63/127 138/160/128
f 97/97/117 9/9/115 62/62/129 99/99/130
f 98/98/119 24/24/122 64/64/125 100/100/124
f 139/161/4 4/4/3 66/66/88 117/117/131
f 140/163/132 15/15/133 68/68/84 123/129/134
f 101/101/135 2/2/136 65/65/137 88/88/85
f 102/102/2 17/17/138 67/67/139 90/90/89
f 7/7/108 49/49/140 82/82/53 72/72/111
f 5/5/11 51/51/10 81/81/59 71/71/26
f 1/1/141 41/41/142 80/80/21 69/69/54
f 66/66/88 43/43/87 79/79/25 70/70/99
f 7/7/108 72/72/111 78/78/29 33/33/64
f 10/10/114 34/34/143 77/77/33 74/74/60
f 117/117/131 66/66/88 70/70/99 141/165/98
f 119/121/116 58/58/65 73/73/32 142/167/96
f 51/51/10 10/10/114 74/74/60 81/81/59
f 49/49/140 1/1/141 69/69/54 82/82/53
f 34/34/143 57/57/120 75/75/34 77/77/33
f 33/33/64 78/78/29 73/73/32 58/58/65
f 43/43/87 5/5/11 71/71/26 79/79/25
f 41/41/142 65/65/137 76/76/22 80/80/21
f 4/4/3 102/102/2 90/90/89 66/66/88
f 15/15/133 101/101/135 88/88/85 68/68/84
f 11/11/18 98/98/119 100/100/124 61/61/19
f 20/20/118 97/97/117 99/99/130 63/63/127
f 137/157/20 61/61/19 100/100/124 143/169/123
f 24/24/122 98/98/119 86/86/70 60/60/69
f 9/9/115 97/97/117 84/84/66 58/58/65
f 22/22/106 85/85/105 96/96/9 55/55/144
f 7/7/108 83/83/107 95/95/90 49/49/140
f 1/1/141 87/87/93 94/94/82 41/41/142
f 16/16/145 89/89/12 93/93/86 45/45/146
f 19/19/113 83/83/107 92/92/63 36/36/147
f 10/10/114 85/85/105 91/91/67 34/34/143
f 49/49/140 95/95/90 87/87/93 1/1/141
f 45/45/146 93/93/86 90/90/89 67/67/139
f 41/41/142 94/94/82 88/88/85 65/65/137
f 34/34/143 91/91/67 86/86/70 57/57/120
f 36/36/147 92/92/63 84/84/66 59/59/72
f 55/55/144 96/96/9 89/89/12 16/16/145
f 140/164/132 17/17/138 102/102/2 144/171/1
f 13/13/92 53/53/91 116/116/74 103/103/112
f 22/22/106 55/55/144 115/115/78 107/107/109
f 13/13/92 103/103/112 114/114/37 44/44/83
f 16/16/145 45/45/146 113/113/41 105/105/79
f 19/19/113 36/36/147 112/112/45 106/106/75
f 22/22/106 107/107/109 111/111/49 38/38/68
f 123/129/134 68/68/84 104/104/40 145/173/94
f 55/55/144 16/16/145 105/105/79 115/115/78
f 53/53/91 19/19/113 106/106/75 116/116/74
f 128/139/103 31/31/47 110/110/46 146/175/71
f 38/38/68 111/111/49 108/108/52 60/60/69
f 36/36/147 59/59/72 110/110/46 112/112/45
f 45/45/146 67/67/139 109/109/42 113/113/41
f 44/44/83 114/114/37 104/104/40 68/68/84
f 32/32/51 128/140/103 146/176/71 108/108/52
f 67/67/139 123/130/134 145/174/94 109/109/42
f 15/15/133 140/163/132 144/172/148 101/101/135
f 62/62/129 137/158/149 143/170/150 99/99/130
f 57/57/120 119/122/116 142/168/96 75/75/34
f 65/65/137 117/118/131 141/166/98 76/76/22
f 17/17/138 140/164/132 123/130/134 67/67/139
f 2/2/136 139/162/4 117/118/131 65/65/137
f 24/24/122 136/155/121 138/159/126 64/64/125
f 99/99/130 143/170/150 138/160/128 63/63/127
f 20/20/118 136/156/121 122/127/73 59/59/72
f 11/11/18 135/153/17 119/122/116 57/57/120
f 21/21/76 121/125/104 134/152/5 54/54/77
f 3/3/55 118/120/58 133/150/13 50/50/56
f 29/29/23 127/138/101 132/148/57 42/42/24
f 26/26/43 125/134/95 131/146/80 46/46/44
f 28/28/35 126/136/97 130/144/61 35/35/36
f 23/23/110 121/126/104 129/142/102 40/40/50
f 40/40/50 129/142/102 128/140/103 32/32/51
f 76/76/22 141/166/98 127/138/101 29/29/23
f 75/75/34 142/168/96 126/136/97 28/28/35
f 109/109/42 145/174/94 125/134/95 26/26/43
f 46/46/44 131/146/80 124/131/8 18/18/7
f 108/108/52 146/176/71 122/128/73 60/60/69
f 35/35/36 130/144/61 120/123/16 12/12/15
f 42/42/24 132/148/57 118/120/58 3/3/55
f 9/9/115 135/154/17 137/158/149 62/62/129
f 50/50/56 133/150/13 120/124/16 8/8/62
f 54/54/77 134/152/5 124/132/8 14/14/81
f 101/101/135 144/172/148 139/162/4 2/2/136
