# File produced by Open Asset Import Library (http://www.assimp.sf.net)
# (assimp v3.1.6393133)

mtllib Blender.mtl

# vertex positions
v 23.451681 -0.924016 17.690443
v 23.451681 -0.628613 17.690443
v 0.047321 -0.628613 17.690443
v 0.047321 -0.924016 17.690443
v 23.621681 -0.924016 -5.883917
v 23.621681 -0.628613 -5.883917
v 23.621681 -0.628613 17.520443
v 23.621681 -0.924016 17.520443
v 23.451681 -0.458613 -5.883917
v 0.047321 -0.458613 -5.883917
v 0.047321 -0.458613 17.520443
v 23.451681 -0.458613 17.520443
v -0.122680 -0.924016 17.520443
v -0.122680 -0.628613 17.520443
v -0.122680 -0.628613 -5.883917
v -0.122680 -0.924016 -5.883917
v 0.047321 -0.924016 -6.053918
v 0.047321 -0.628613 -6.053918
v 23.451681 -0.628613 -6.053918
v 23.451681 -0.924016 -6.053918
v 0.047321 -1.094016 17.520443
v 0.047321 -1.094016 -5.883917
v 23.451681 -1.094016 17.520443
v 23.451681 -1.094016 -5.883917

# UV coordinates
vt 0.535878 0.851004
vt 0.529613 0.851004
vt 0.529613 0.500000
vt 0.535878 0.500000
vt 0.523347 0.851004
vt 0.523347 0.500000
vt 0.503605 0.000000
vt 1.000000 0.000000
vt 1.000000 0.496395
vt 0.503605 0.496394
vt 0.517082 0.500000
vt 0.517082 0.851004
vt 0.507211 0.500000
vt 0.513476 0.500000
vt 0.513476 0.851004
vt 0.507211 0.851004
vt 0.012748 0.517082
vt 0.010199 0.513477
vt 0.015298 0.513477
vt 0.010199 0.507211
vt 0.012748 0.503606
vt 0.015298 0.507211
vt 0.007649 0.517082
vt 0.005099 0.513477
vt 0.007649 0.503606
vt 0.005099 0.507211
vt 0.002550 0.517082
vt 0.000000 0.513477
vt 0.002550 0.503606
vt 0.000000 0.507211
vt 0.503605 0.853553
vt 0.507211 0.856103
vt 0.517082 0.853553
vt 0.513476 0.856103
vt 0.003606 0.003606
vt 0.003606 0.500000
vt 0.000000 0.500000
vt 0.000000 0.003606
vt 0.535878 0.996394
vt 0.539484 0.500000
vt 0.539484 0.996394
vt 0.500000 0.003606
vt 0.003606 0.000000
vt 0.500000 0.000000
vt 0.546695 0.500000
vt 0.546695 0.996394
vt 0.543089 0.996394
vt 0.543089 0.500000
vt 0.500000 0.500000
vt 0.503606 0.003606
vt 0.503606 0.500000
vt 0.500000 0.503605
vt 0.003606 0.503605
vt 1.000000 0.500000
vt 0.503605 0.500000

# vertex normals
vn 0.000000 0.000000 1.000000
vn 1.000000 0.000000 0.000000
vn 0.000000 1.000000 0.000000
vn -1.000000 0.000000 0.000000
vn 0.000000 0.000000 -1.000000
vn -0.577284 -0.577384 0.577384
vn -0.577284 0.577384 0.577384
vn -0.577417 -0.577317 -0.577317
vn -0.577417 0.577317 -0.577317
vn 0.577317 -0.577417 0.577317
vn 0.577317 0.577417 0.577317
vn 0.577317 -0.577417 -0.577317
vn 0.577317 0.577417 -0.577317
vn -0.707107 -0.707107 0.000000
vn -0.707107 0.000000 0.707107
vn -0.707107 0.707107 0.000000
vn -0.707107 0.000000 -0.707107
vn 0.000000 -0.707107 -0.707107
vn 0.000000 0.707107 -0.707107
vn 0.707107 0.000000 -0.707107
vn 0.707107 -0.707107 0.000000
vn 0.707107 0.707107 0.000000
vn 0.707107 0.000000 0.707107
vn 0.000000 -0.707107 0.707107
vn 0.000000 0.707107 0.707107
vn 0.000000 -1.000000 0.000000

# Mesh
g Cube.008
usemtl yer
f 4/4/1 1/1/1 2/2/1
f 2/2/1 3/3/1 4/4/1
f 8/3/2 5/2/2 6/5/2
f 6/5/2 7/6/2 8/3/2
f 12/10/3 9/7/3 10/8/3
f 10/8/3 11/9/3 12/10/3
f 16/12/4 13/11/4 14/6/4
f 14/6/4 15/5/4 16/12/4
f 20/16/5 17/13/5 18/14/5
f 18/14/5 19/15/5 20/16/5
f 21/17/6 4/18/6 13/19/6
f 3/20/7 11/21/7 14/22/7
f 22/23/8 16/24/8 17/18/8
f 10/25/9 18/20/9 15/26/9
f 23/27/10 8/28/10 1/24/10
f 12/29/11 2/26/11 7/30/11
f 24/31/12 20/16/12 5/32/12
f 9/33/13 6/34/13 19/15/13
f 16/38/14 22/35/14 21/36/14
f 21/36/14 13/37/14 16/38/14
f 13/19/15 4/18/15 3/20/15
f 3/20/15 14/22/15 13/19/15
f 14/41/16 11/39/16 10/4/16
f 10/4/16 15/40/16 14/41/16
f 15/26/17 18/20/17 17/18/17
f 17/18/17 16/24/17 15/26/17
f 20/44/18 24/42/18 22/35/18
f 22/35/18 17/43/18 20/44/18
f 18/48/19 10/45/19 9/46/19
f 9/46/19 19/47/19 18/48/19
f 19/15/20 6/34/20 5/32/20
f 5/32/20 20/16/20 19/15/20
f 8/51/21 23/49/21 24/42/21
f 24/42/21 5/50/21 8/51/21
f 6/40/22 9/48/22 12/47/22
f 12/47/22 7/41/22 6/40/22
f 7/30/23 2/26/23 1/24/23
f 1/24/23 8/28/23 7/30/23
f 4/53/24 21/36/24 23/49/24
f 23/49/24 1/52/24 4/53/24
f 2/55/25 12/10/25 11/9/25
f 11/9/25 3/54/25 2/55/25
f 21/36/26 22/35/26 24/42/26
f 24/42/26 23/49/26 21/36/26
